# xmcd
#
# Track frame offsets:
#  150
#  13906
#  27138
#  39814
#  55790
#  64269
#  76062
#  91163
#  112042
#  126064
#  138052
#  147543
#  158390
#  172462
#  183150
#  196039
#  212494
#  222815
#
# Disc length: 3088 seconds
#
# Revision: 2
# Processed by: cddbd v1.5.1PL2 Copyright (c) Steve Scherf et al.
# Submitted via: Collectorz.com_Music_Collector 6.11
#
DISCID=eb0c0e12
DTITLE=Various Artist - Hucklebuck Shoes and Wedding Dress Blues
DYEAR=2003
DGENRE=Country
TTITLE0=McBride, Frankie - Five Little Fingers
TTITLE1=Dolan, Joe and The Drifters - Make Me An Island
TTITLE2=Big Tom and The Mainliners - Four Country Roads
TTITLE3=Dunphy, Sean and The Hoedowners - Pal of My Cradle Days
TTITLE4=Fagan, Sean and The Pacific Showband - She Wears My Ring
TTITLE5=Cunningham, Larry - Lovely Leitrim
TTITLE6=Hurley, Red - When
TTITLE7=Boyer, Brendan - Thank You Elvis
TTITLE8=Reid, Eileen and The Cadets - I Gave My Wedding Dress Away
TTITLE9=McEvoy, Johnny - The Boston Burglar
TTITLE10=Stuart, Gene and The Mighty Avons - I'm Just Lucky I Guess
TTITLE11=Freshmen, The - Go Granny Go
TTITLE12=Rock, Dickie and The Miami - From The Candy Store on The Corner
TTITLE13=Dreams - Baby I'm Your Man
TTITLE14=Boyer, Brendan - Love Thee Dearest
TTITLE15=Hurley, Red - Let The Heartaches Begin
TTITLE16=Moore, Butch and The Capitol - Born To Be with You
TTITLE17=Dunphy, Sean and The Hoedowners - The Christmas Polka
EXTD=
EXTT0=
EXTT1=
EXTT2=
EXTT3=
EXTT4=
EXTT5=
EXTT6=
EXTT7=
EXTT8=
EXTT9=
EXTT10=
EXTT11=
EXTT12=
EXTT13=
EXTT14=
EXTT15=
EXTT16=
EXTT17=
PLAYORDER=
